<svg xmlns="http://www.w3.org/2000/svg" width="200" height="56" viewBox="0 0 200 56" role="img" aria-label="Costco">
  <g fill="#005dab">
    <path d="M40 28a12 12 0 1 1-6.2-10.5l-3.8 6.6A5 5 0 1 0 32.6 32l3.8 6.6A12 12 0 0 1 40 28z"/>
    <path d="M55 18h6v20h-6zM66 18c5 0 9 4 9 10s-4 10-9 10-9-4-9-10 4-10 9-10zm0 5c-2.5 0-4.5 2.2-4.5 5s2 5 4.5 5 4.5-2.2 4.5-5-2-5-4.5-5zM88 18h6l7 13.5V18h5v20h-6l-7-13.5V38h-5zM111 18h6v15h9v5h-15zM130 18c5 0 9 4 9 10s-4 10-9 10-9-4-9-10 4-10 9-10zm0 5c-2.5 0-4.5 2.2-4.5 5s2 5 4.5 5 4.5-2.2 4.5-5-2-5-4.5-5zM150 18h6v20h-6zM162 28c0-6 4.5-10.4 10.5-10.4 3.7 0 6.6 1.6 8.4 4l-4 3.3c-1-1.4-2.5-2.3-4.4-2.3-3 0-5.2 2.3-5.2 5.4s2.2 5.4 5.2 5.4c1.9 0 3.4-.9 4.4-2.3l4 3.3c-1.8 2.4-4.7 4-8.4 4-6 0-10.5-4.4-10.5-10.4z"/>
  </g>
</svg>
