<svg width="25" height="24" viewBox="0 0 25 24" fill="none" xmlns="http://www.w3.org/2000/svg">
  <path
    fill-rule="evenodd"
    clip-rule="evenodd"
    d="M12.1367 1.23855C18.0767 1.23855 22.8982 6.05371 22.8982 12C22.8982 17.9463 18.083 22.7615 12.1367 22.7615C6.19043 22.7615 1.37527 17.94 1.37527 12C1.37527 6.06003 6.19043 1.23855 12.1367 1.23855ZM12.1367 0C18.7655 0 24.1367 5.37125 24.1367 12C24.1367 18.6288 18.7655 24 12.1367 24C5.50797 24 0.136719 18.6224 0.136719 12C0.136719 5.37757 5.50797 0 12.1367 0Z"
    fill="#333333"
  />
  <path
    fill-rule="evenodd"
    clip-rule="evenodd"
    d="M11.8783 14.2512L8.75315 11.3093C8.48802 11.0691 8.12179 10.9996 7.79979 11.2142C7.40829 11.4793 7.32614 12.0349 7.68605 12.3695L12.1303 16.5731L16.5746 12.3695C16.7413 12.1992 16.8271 11.9783 16.8018 11.7447C16.7829 11.5428 16.6751 11.3598 16.5304 11.2211C16.2084 10.9183 15.7979 10.9689 15.5075 11.2529L12.6197 14.0075V5.83691H11.3847V14.2512H11.8783Z"
    fill="#333333"
  />
  <path
    fill-rule="evenodd"
    clip-rule="evenodd"
    d="M6.56602 17.8433H17.7074C17.7832 17.8433 17.8464 17.9065 17.8464 17.9823V19.0818C17.8464 19.1576 17.7832 19.2208 17.7074 19.2208H6.56602C6.49019 19.2208 6.427 19.1576 6.427 19.0818V17.9823C6.427 17.9065 6.49019 17.8433 6.56602 17.8433Z"
    fill="#333333"
  />
</svg>
